<svg xmlns="http://www.w3.org/2000/svg" viewBox="0 0 80.01 80.01"><path d="M59.06,80H21.49c-.69,0-3.6-.2-4.19-.28A19.57,19.57,0,0,1,.64,64.52a26.83,26.83,0,0,1-.63-5c0-14,0-25.33.29-41.32C.4,12.88,3.53,7.55,7.71,4.29A21,21,0,0,1,21.12,0H57.67a37.91,37.91,0,0,1,5.22.32A19.21,19.21,0,0,1,75.78,7.79,21.09,21.09,0,0,1,80,21.07V59a23.81,23.81,0,0,1-.65,5.64c-1.93,7.71-6.8,12.62-14.48,14.69A31.65,31.65,0,0,1,59.06,80ZM5.16,40V58.65a23.21,23.21,0,0,0,.17,3A14.4,14.4,0,0,0,11.55,72.2a16.45,16.45,0,0,0,9.61,2.7H58.82a20.14,20.14,0,0,0,2.8-.17A14.47,14.47,0,0,0,72.16,68.5,16.14,16.14,0,0,0,74.85,59V21a20,20,0,0,0-.16-2.57A14.52,14.52,0,0,0,68.42,7.83a16.46,16.46,0,0,0-9.54-2.68H21.15a20.59,20.59,0,0,0-2.72.17,14.51,14.51,0,0,0-10.6,6.27,16.28,16.28,0,0,0-2.67,9.46Q5.18,30.52,5.16,40Z" transform="translate(-0.01 0.02)"/><path d="M15.47,56.53V24.9a2.34,2.34,0,0,1,.45-.07H28.5a10.31,10.31,0,0,1,6.12,1.77A7.5,7.5,0,0,1,34,39.32l-.46.3A22.86,22.86,0,0,1,36.14,41a7.89,7.89,0,0,1,3,8.64c-1,3.91-3.61,6-7.51,6.61a28.13,28.13,0,0,1-4,.31H16.07Zm4.22-3.71h7.46a24.19,24.19,0,0,0,3.18-.16,5.3,5.3,0,0,0,3.89-8.22c-1.14-1.79-3-2.31-4.91-2.39-3-.11-6-.1-9-.14h-.66Zm0-14.67h6.44A35.2,35.2,0,0,0,29.69,38a4.29,4.29,0,0,0,3.89-3.2c.76-3.24-1-5.81-4.32-6-3.13-.17-6.28-.12-9.43-.16l-.16.09Z" transform="translate(-0.01 0.02)"/><path d="M64.63,46.06H47.46c.14,2.74.86,5.17,3.21,6.7a6.31,6.31,0,0,0,7.07.17,5.86,5.86,0,0,0,2.39-3.1.8.8,0,0,1,.95-.62l.1,0c1,.16,2.1.28,3.23.43a9.5,9.5,0,0,1-3.53,5.49c-3.64,2.75-10.84,2.65-14.31-1a10.75,10.75,0,0,1-2.87-5.69,17,17,0,0,1,.45-8.41,10,10,0,0,1,10.19-7,10,10,0,0,1,10,9.22C64.53,43.52,64.55,44.76,64.63,46.06ZM60.42,42.8c-.22-4-2.91-6.73-6.49-6.54a6.44,6.44,0,0,0-6.2,6.54Z" transform="translate(-0.01 0.02)"/><path d="M60.46,30.83h-13V27.72h13Z" transform="translate(-0.01 0.02)"/></svg>