<svg xmlns="http://www.w3.org/2000/svg" viewBox="0 0 80.01 80.01"><path d="M59.06,80H21.49c-.69,0-3.6-.2-4.19-.29A19.55,19.55,0,0,1,.64,64.52a26.31,26.31,0,0,1-.63-5c0-14,0-25.37.29-41.37C.4,12.89,3.53,7.55,7.71,4.29A21,21,0,0,1,21.12,0H57.67a36.4,36.4,0,0,1,5.22.31A19.25,19.25,0,0,1,75.78,7.79,21.09,21.09,0,0,1,80,21.07V59a23.81,23.81,0,0,1-.65,5.64c-1.93,7.7-6.8,12.62-14.48,14.69A31.65,31.65,0,0,1,59.06,80ZM5.16,40V58.66a23.21,23.21,0,0,0,.17,3,14.48,14.48,0,0,0,6.22,10.55,16.28,16.28,0,0,0,9.61,2.69H58.81a21.8,21.8,0,0,0,2.8-.16A14.52,14.52,0,0,0,72.15,68.5a16.19,16.19,0,0,0,2.7-9.5V21.05a20,20,0,0,0-.16-2.57,14.5,14.5,0,0,0-6.26-10.6A16.39,16.39,0,0,0,58.89,5.2H21.15a20.58,20.58,0,0,0-2.72.16,14.47,14.47,0,0,0-10.6,6.28A16.2,16.2,0,0,0,5.16,21.1Q5.18,30.52,5.16,40Z" transform="translate(-0.01 0.01)"/><path d="M39.92,58A18,18,0,1,1,58,40.07,18,18,0,0,1,39.92,58ZM52.78,40A12.77,12.77,0,1,0,40,52.78,12.77,12.77,0,0,0,52.78,40Z" transform="translate(-0.01 0.01)"/><path d="M60.87,21.75a2.61,2.61,0,1,1-2.62-2.61A2.61,2.61,0,0,1,60.87,21.75Z" transform="translate(-0.01 0.01)"/></svg>