<svg xmlns="http://www.w3.org/2000/svg" viewBox="0 0 80.01 80.01"><path d="M59.06,80H21.49c-.69,0-3.6-.2-4.19-.28A19.57,19.57,0,0,1,.64,64.52a26.83,26.83,0,0,1-.63-5c0-14,0-25.33.29-41.32C.4,12.88,3.53,7.55,7.71,4.29A21,21,0,0,1,21.12,0H57.67a37.91,37.91,0,0,1,5.22.32A19.21,19.21,0,0,1,75.78,7.79,21.09,21.09,0,0,1,80,21.07V59a23.81,23.81,0,0,1-.65,5.64c-1.93,7.71-6.8,12.62-14.48,14.69A31.65,31.65,0,0,1,59.06,80ZM5.16,40V58.65a23.21,23.21,0,0,0,.17,3A14.4,14.4,0,0,0,11.55,72.2a16.45,16.45,0,0,0,9.61,2.7H58.82a20.14,20.14,0,0,0,2.8-.17A14.47,14.47,0,0,0,72.16,68.5,16.14,16.14,0,0,0,74.85,59V21a20,20,0,0,0-.16-2.57A14.52,14.52,0,0,0,68.42,7.83a16.46,16.46,0,0,0-9.54-2.68H21.15a20.59,20.59,0,0,0-2.72.17,14.51,14.51,0,0,0-10.6,6.27,16.28,16.28,0,0,0-2.67,9.46Q5.18,30.52,5.16,40Z" transform="translate(-0.01 0.02)"/><path d="M55.85,55.92H49.37V44.86a13.39,13.39,0,0,0-.18-2,3.2,3.2,0,0,0-3.43-3,3.78,3.78,0,0,0-.57.1A3.55,3.55,0,0,0,42,43.2a13.43,13.43,0,0,0-.21,2.28V55.91H35.39V34.71h6.35v2.81c.3-.39.5-.7.75-1a6.92,6.92,0,0,1,4.78-2.21A9.62,9.62,0,0,1,52,35a5.85,5.85,0,0,1,3.35,4.38,19.56,19.56,0,0,1,.47,3.82c.06,4.13,0,8.27,0,12.41A.93.93,0,0,1,55.85,55.92Z" transform="translate(-0.01 0.02)"/><path d="M24.67,34.71H31.2V55.92H24.67Z" transform="translate(-0.01 0.02)"/><path d="M31.88,28a3.86,3.86,0,1,1-3.83-3.89h0A3.87,3.87,0,0,1,31.88,28Z" transform="translate(-0.01 0.02)"/></svg>