<svg id="Layer_1" data-name="Layer 1" xmlns="http://www.w3.org/2000/svg" viewBox="0 0 680.28 185.85"><defs><style>.cls-1{fill:#5a6345;}</style></defs><path class="cls-1" d="M206.25,36.44l-1.79,1.12-4.26-6.27L202,30.17Zm-2.46,13h-2.24l-1.35,5.82h2ZM243,185.35H200.88V62.42c-.16-.6.81-3.28,2.91-8.06s3.2-8.14,3.36-10.08a17.64,17.64,0,0,0,4.7,1.34c-1,1.8-2.54,5.6-4.48,11.43s-2.91,9.62-2.91,11.41q0,6.95,4.25,7,2.91,0,3.14,3.13a15.45,15.45,0,0,0-.67,4.48,14.84,14.84,0,0,0,.22,2.46A20.68,20.68,0,0,1,214.09,83c.44.6.44,1.94,0,4a10.42,10.42,0,0,0-.23,4.7,2.22,2.22,0,0,1,2-.45,27.24,27.24,0,0,0,3.58.45q1.13,0,6.61-6.94t6.6-6.94a4,4,0,0,1,2.47.67l.89.67a.7.7,0,0,0,.45-.67,28.36,28.36,0,0,1-3.14-2.91q2.46,2.46,6.72,6.27a18.74,18.74,0,0,1,.67,5.37q0,6.49-3.8,19.37t-3.81,18v3.8l2.24,2a12.2,12.2,0,0,0,2.46-.45c.9-.29,1.35-.22,1.35.23-1,.44-3.22.52-6.5.22a1.94,1.94,0,0,0-.67,1.34,3.09,3.09,0,0,0,1.12,2c-1.49-.15-3.14,1.49-4.93,4.93q0,5.15-.22,2.46a1.82,1.82,0,0,0,2,1.79c1.35,0,1.94-.15,1.8-.45-.3-1.49-.45-2-.45-1.57q0,4.49,5.15,7c1,0,.89.15-.45.44a2,2,0,0,1-2.24-.44c-2.09,2.23-3.13,3.58-3.13,4a10.52,10.52,0,0,0,2.46.22c.9,0,2.13-.07,3.69-.22s2.8-.23,3.7-.23A10.55,10.55,0,0,1,243,152Zm110.17,0h-47l-33.81-61.13c-1.95,0-2.92-.59-2.92-1.79,0-.6.45-1,1.35-1.34q-6.27-6.27-6.27-11.2,0-2.69,7.61-13.88c.3-.45.07-1.05-.67-1.79q-2.46,2.91-8.73,10.07-3.58-1.56-6.05-9.18c-1-3.28-2.16-6.79-3.36-10.52q4.48-3.81,4.48-7.39a7.76,7.76,0,0,0-.22-1.79q-1.12.89-4.71,7.61A27.39,27.39,0,0,1,247,76.3a62.85,62.85,0,0,0-5.6-7.16l-2,2.24a11.56,11.56,0,0,0,1.79,2.23,11.86,11.86,0,0,1,2,2.69c-1,.45-2.17,1-3.36,1.57a16.09,16.09,0,0,0-.67-3.81,15.64,15.64,0,0,1-.68-3.8l-4,1.34V55l-1.79-2.24Q232,58,226.18,77.87q1.11-6,4.48-18.14c0-1.64-.23-2.68-.68-3.13a2.12,2.12,0,0,1-1.56.67,3.89,3.89,0,0,1-2.69-1.34q4.71-2.7,4-5.38,3.13,1.8,9.85,5.6-1.79-3.36-5.15-9.18.9,0,4.48,3.36a4.79,4.79,0,0,0,.9-1.57,4.74,4.74,0,0,1,.89-1.57,176.94,176.94,0,0,1-12.31-12.76q6,2.91,8.28,7.39c1.94,0,2.91-.82,2.91-2.47a5.9,5.9,0,0,1,5.6,3.59,3,3,0,0,0,.9-2.24c0-1.35-1-2-2.91-2A39.69,39.69,0,0,1,247,35.1a48.79,48.79,0,0,1-8.06-2.24,3.8,3.8,0,0,0-.78,2.47,3.85,3.85,0,0,1-.79,2.46,38.64,38.64,0,0,0-.22-4.26,5.4,5.4,0,0,1,2.24-3.8,3.68,3.68,0,0,0-2.69-1.57,2.6,2.6,0,0,0-1.79.89q0-3.8-1.12-4.92-2.46,1.13-9,3.58a10.25,10.25,0,0,1-.22-2,9.87,9.87,0,0,1,1.12-4.48l-.9-2a2.07,2.07,0,0,0-2.23-1.34,2.25,2.25,0,0,0-1.91,1.23,2.25,2.25,0,0,1-1.9,1.23c-.9,0-2.69-.89-5.38-2.69-3.43-2.23-5.3-3.43-5.59-3.58a6.7,6.7,0,0,0-1.12,3.58c.14.75.45,1.12.89,1.12a3.76,3.76,0,0,0,1.79-.67L206,21.67c0-1.94-.31-3.21-.9-3.81a4.52,4.52,0,0,0-.9,2.46A7.67,7.67,0,0,0,200.88,19V8h47l41.2,71.2a6.81,6.81,0,0,1,4-1.12A10.5,10.5,0,0,0,293.8,81a10.62,10.62,0,0,1,.67,2.92q-6.5,2.68-8.73,5.82a5.6,5.6,0,0,1,.67,1.56c0,.3.6.45,1.79.45l4.48-1.34q3.81,0,3.81,10.75,0-3.14-3.81-3.14-1.12,0-8.06,6c.9-.9,1.34-2.91,1.34-6a4,4,0,0,1,2.92,1.12l2-2V92.65q-2.91,0-2.91,3.8a7.34,7.34,0,0,1-4.59-2.79,5.2,5.2,0,0,1-1.23-4.82q-4.26,4-5.82,4c-1.8,0-2.69-.82-2.69-2.46v-.22c-.3,0-.45.74-.45,2.23q0,5.16,9.85,16.35t9.86,14.11A5.48,5.48,0,0,1,292,126a29.69,29.69,0,0,1,3.13,2,14.89,14.89,0,0,1,2.47-3.14,5.47,5.47,0,0,0,1.57-3.58,10.42,10.42,0,0,0-.23-2q0,2.25,3.81,6.27,1.33-.66,4.25-6.71a15.44,15.44,0,0,0-8.73-2.69q-.45-4.71-1.57-11.87a.66.66,0,0,0,.23-.45l3.8,10.75a5.6,5.6,0,0,0-1.79-4,2,2,0,0,0-1.34,1.79q0-4.92-.45-5.37a4.89,4.89,0,0,0,2.69,1.12,1.34,1.34,0,0,0,.45-.9,5.72,5.72,0,0,0-.9-2.24,6,6,0,0,1-.9-2q6.5,4.69,6.5,7.84a6.15,6.15,0,0,1-1.79,4q3.14,3.14,5.59,3.13c1.8,0,2.69-.59,2.69-1.79a27.57,27.57,0,0,1-.67,2.69,1.54,1.54,0,0,0,.45,1.56c1.49-1.79,2.24-3.35,2.24-4.7a6.44,6.44,0,0,0-1.35-3.13,6.65,6.65,0,0,1-1.34-2.91V8h42.32ZM213.41,25.25l-4.47,3.13-1.12-1.79,4.48-2.91ZM213,55.48a10.66,10.66,0,0,0-3.59,8.06q0,2.68,3.36,8.06a33.5,33.5,0,0,1-.89-7.61A33.11,33.11,0,0,1,213,55.48Zm5.82-30.68a61.71,61.71,0,0,1-8.06-5.37h4.7C216.18,20.77,217.29,22.56,218.79,24.8Zm-.67,26.65c0-2.39-.67-3.59-2-3.59a21.76,21.76,0,0,0-2,2.58,21.4,21.4,0,0,1-2,2.57Q213.63,51.45,218.12,51.45Zm-.67,28.66-1.57-4.7-1.79.67,1.34,4Zm1.12-4.93h-2V59.28h2Zm8.06-58.66q-2.48-4.93-5.38-4.93c-.75,0-1.27,1.2-1.57,3.58a8.48,8.48,0,0,1,2.69-.45A5.82,5.82,0,0,1,226.63,16.52ZM224.83,62l-2.68,13.21h-1.79L222.82,62Zm4.48,93.6a21,21,0,0,1-3.69-.45,21,21,0,0,0-3.7-.45l2.47,2.69a4.9,4.9,0,0,1-3.59,1.12q2.47.68,8.29,4.48v-4a11.34,11.34,0,0,1,.22-2.24Zm-.67,11H226.4v-3.36h2.24Zm5.6-134.35-7.17-1.34V28.61L234.24,30Zm-1.79,15.45h-1.79l-1.57-2.91,1.79-.67ZM243,25.7c-2.69-2.24-4.55-3.88-5.6-4.93a15.5,15.5,0,0,1-3.8-5.37v4.7Q237.14,22.11,243,25.7Zm1.57,39q0,.68-4.26,4.25h-4.47a91.2,91.2,0,0,0,6.71-14.78q1.35,1.57,1.35,5.15Q243.87,63.54,244.54,64.66Zm9.63,67.17c-1.65,1.95-3.29,2.91-4.93,2.91a6.65,6.65,0,0,1-3.58-1.34,6.53,6.53,0,0,0,.45-2.46,17,17,0,0,0-.67-4.26,4.4,4.4,0,0,1,1.56,2.91c-2.39,2.39-3.58,3.89-3.58,4.48a3.58,3.58,0,0,1,2.24.9q-7.4,4.92-9.41,4.92a21,21,0,0,1,2.92.34,20.78,20.78,0,0,0,2.91.34c1,0,1.93-.79,2.68-2.35a13.63,13.63,0,0,1,1.57-2.8l2.46,2.46Q254.18,135.42,254.17,131.83Zm-10.75-7.61-5.6-4.25-1.12,1.79,5.6,4.25Zm-2.24,34.93h-2.24v-4.7h2.24Zm2.46-16.79-1.79-.67-1.57,3.13,1.8.9Zm2.47-88.45-1.57-3.58-1.79.67,1.57,2.91Zm5.6,70.76-8.29-1.35v-2l8.29,1.34Zm0-62.92q-4.26,0-5.6-1.35A8.23,8.23,0,0,1,244.54,64c-1.2,0-.22-.3,2.91-.9,1.34-.3,2,.3,2,1.79A5.06,5.06,0,0,1,248,68.13a3.94,3.94,0,0,1-2.8,1.68q4.48,0,5.38-1.12a16.81,16.81,0,0,1,.55-3.47A16.49,16.49,0,0,0,251.71,61.75Zm1.34-.68V58.84l-5.82-1.57v2.24Zm4,11.43c-1.94.44-4.85,1.34-8.73,2.68,1.79-2.38,4.55-5.6,8.28-9.63a8.43,8.43,0,0,0-.45,2.69A11.48,11.48,0,0,0,257.08,72.5ZM252.6,31.74,251,37.56h-2.24l1.57-5.82Zm3.58,117.34-4.7-5.38,2.91,5.38Zm.23-19.26q-2.48,0-2.47-3.81a4.18,4.18,0,0,1-1.79,2.91,8.2,8.2,0,0,1,2.13.45A8.2,8.2,0,0,0,256.41,129.82ZM258,164.08l-2.68-11,.67,11Zm2-93.82L258.65,62h-2.24l1.34,8.29Zm2.24-19.48-1.34,1.11L258,49l1.12-1.34Zm1.34,64.71-1.12-1.79L258,116.61l1.12,1.79Zm5.82,19.7q-1.56-4.24-4.25-4.25c1,.89,1.57,1.57,1.57,2s-1.27.9-3.81,1.35q-2.46-4.71-4.48-4.71,1.35,2.25,4,7.17A11.05,11.05,0,0,1,269.39,135.19ZM266.26,124H264l-1.34-5.82h2.24Zm.9-48.59-3.36-1.8-.68,1.8,3.36,1.79Zm.22,7.39h-2V79.44h2Zm-2,79.93v-5.82h2Zm5.15-84.41v-2h-3.35v2Zm9.18.89L279,77.42,275.89,79v1.79Zm29.79-4.48c-1.8,0-2.69-1-2.69-2.91-10.53,2.76-22.17-7.61-22.17-7.61q.67,3.14,6.49,8.4t9,5.26Q303.65,77.87,309.48,74.73ZM290,110.34h-2l-1.34-4.26,1.79-.67Zm3.8-12.54h-2.24V94.44h2.24Zm2.46,37.39-1.34-6.94h-2.24l1.35,6.94Zm3.36,23.29c-1.34.6-2,1.27-2,2,.15-.6-.53-1.83-2-3.7s-2.24-3.1-2.24-3.69a4.31,4.31,0,0,1,3.14,1.79ZM299.4,49.66l-5.82-1.35V46.07l5.82,1.57Zm3.81,91.13a26.51,26.51,0,0,1-6.95,4.7,9,9,0,0,1-1.34-3.58,4.69,4.69,0,0,0,2.46.67A12.75,12.75,0,0,0,303.21,140.79Zm4.92-74.12a26.22,26.22,0,0,1-11-6.71V55.48h4.48Zm-2,73.67h-2v-4.7h2Zm6.27-3.36L310.15,143l-1.79-.67L310.6,137Zm1.34-16.34-.67,4.7h-2.24l.67-4.7Zm2.46,4.48-2.91,4.47-1.79-1.34L314.4,124Z" transform="translate(0 -0.62)"/><path class="cls-1" d="M527.79,186l-58.44-1.57a9.78,9.78,0,0,1,1.79.34,9.56,9.56,0,0,0,2,.34q4.69,0,10-3.47t5.26-7.95q0-4.49-6.94-6.94l-8.73-3.14a6.24,6.24,0,0,1-1.79,2,3.56,3.56,0,0,0-1.57,2.46c0,2.39-1.42,4.25-4.25,5.6q-3.15,0-19.71-26.2,2.46-.45,3.92-4.26a19.09,19.09,0,0,0,1.45-6.71c0-3.14-.89-5.45-2.68-6.95a4.89,4.89,0,0,0,2.68,1.12A.89.89,0,0,0,451,130c0-.59-.6-1.57-1.79-2.91q2.24,0,6.72,2.24.21-2.69-7.84-15.23,4,3.81,10.52,11.42l.67-5.37c-.74-.15-2.76-1.6-6-4.37s-5.3-4.14-6.05-4.14A29.2,29.2,0,0,0,443,113a31.6,31.6,0,0,0-3.92,1.57,10.71,10.71,0,0,0-2.69,7.17q0,6.27,4.48,6.27a13.66,13.66,0,0,0,2.8-.45,13.66,13.66,0,0,1,2.8-.45c-1.2,1.65-3.28,4.7-6.27,9.18l.67,1.57c.3,1.05.9,1.57,1.79,1.57a10.13,10.13,0,0,0,3.59-1.12,12,12,0,0,0,1.56,3.36,2.57,2.57,0,0,0-2.91,2.91q-1.79-1.35-6.38-7.62c-3.06-4.17-4.59-6.79-4.59-7.83a12.84,12.84,0,0,1,.56-3.14,12.7,12.7,0,0,0,.56-3.13c0-1.79-1.2-3.51-3.58-5.15L429,114.37a3.07,3.07,0,0,1,2.92,1.12c1.49-1.49,2.23-2.84,2.23-4q-2.24,0-4.7-2.47c-1.79,3.74-2.61,6.72-2.46,9a14.14,14.14,0,0,0-9.63-9.4q2.91-2.7,2.91-4.48c0,.89.75,1.34,2.24,1.34l-.89-5.15q-1.12.45-3.59,3.81l-2.68-2.69a6.86,6.86,0,0,1-1.24,3.14c-.82,1.34-1.6,2-2.35,2s-2.54-1.68-5.37-5-4.7-5-5.6-5A2,2,0,0,0,399,97.69a2.17,2.17,0,0,1-2,1.23,10.35,10.35,0,0,1-4-1.35l-2,3.14a10.71,10.71,0,0,0-2.69,7.16c0,4.19,1.64,6.27,4.93,6.27a2,2,0,0,0,1.79-.67,1.74,1.74,0,0,1,1.57-.67q1.11,0,5.37,4.48c2.83,3,4.63,4.48,5.37,4.48a7.29,7.29,0,0,0,2.24-.45,9.42,9.42,0,0,1,1.57-.45q-11,10.31-10.75,13.66,0-6.27-.44-3.58c.14-.9.89-1.72,2.23-2.47v-9.62q-1.34-.9-5.82-1.79t-5.37-1.8q-2.91-2-9.63-6.27a69.33,69.33,0,0,0-8.73-3.8,3.5,3.5,0,0,1-.9.67v2q0,1.57,2.69,4.71a63,63,0,0,1,4.25,5.37q1.57-2.24.9-7.39c2.54,0,3.58.53,3.13,1.57q2.46,4.92,4.71,9.85a13.85,13.85,0,0,0,7.83,5.82,4.26,4.26,0,0,0,3.14-.22c-1.2,0-1.79.82-1.79,2.46q0-2-3.36-2c-1.79,0-3.44,2.31-4.93,6.94a.9.9,0,0,0-.22.67A1.79,1.79,0,0,0,389,137q2-1.33,5.38-3.8v4.92c-2.1,0-3.51-.37-4.26-1.12a3.86,3.86,0,0,0-.89,2.24,3.89,3.89,0,0,1-.9,2.24,6.05,6.05,0,0,0,4.48,1.79q1.56,0,5.15-3.58,0,2.24,2.46,6.27a2.55,2.55,0,0,0,1.12-2q0,17-2,23.29c0,1-1,1.57-2.91,1.57-.9,0-1.42-.15-1.57-.45a1.32,1.32,0,0,1,.34-.67,1.49,1.49,0,0,0,.33-.89.73.73,0,0,0-.45-.68v-.22c-.44,0-.67.75-.67,2.24,0,.89.67,2.32,2,4.25l2.68,4q.67,0,1.35-1.23c.45-.82.89-1.23,1.34-1.23v12.32a24.07,24.07,0,0,1-5.93-1.12,23.66,23.66,0,0,0-5.94-1.12c-.75,0-1.12.15-1.12.44a3.41,3.41,0,0,0,.45,1.35c0,.45-.37.67-1.12.67h-2.46c-1.05,0-1.65-.3-1.79-.9l-.45-1.79c-1,0-1.57.23-1.57.67s.37.83,1.12,1.57q-18.58,0-27.76-1.57,3.8,0,4.92-1.12a9.65,9.65,0,0,0-1.57-.89c-.89-.45-1.34-.82-1.34-1.12l.45-.45q-2.91-2.24-2.91-8.51c0-4.33,1.41-6.71,4.25-7.16V75.63c-1.19-.45-3.36-1.42-6.49-2.91q2.69,0,2.69-4,10.06,0,12.54-.9-2.48-.67-12.32-.67V12.71q2.23,1.56,5,3.92c1.86,1.56,3.47,2.35,4.81,2.35a17.85,17.85,0,0,0,12.77-5.15c.59-1.79,1.49-4.26,2.68-7.39L397,9.57c-.44,0-1.27.64-2.46,1.91s-2.16,1.9-2.91,1.9a7,7,0,0,1-2.69-.67l-2,2q6.27,9.4,9.63,9.41a11.58,11.58,0,0,0,3-.56A13,13,0,0,1,402,23l1.12,44.33,2.24-2.68A4.3,4.3,0,0,0,408.44,66q2.47,0,24.41-26l28-33.14a65,65,0,0,1,9.85-.45,41,41,0,0,1,11,1.12q.66,0,3.8,6.49c1-.59,4.18-.89,9.41-.89-.6-.45-1.87-2.61-3.81-6.5.9,0,1.94,1.2,3.14,3.59L496.89,8a4.35,4.35,0,0,1,2.91-1.57c.75,0,1.83.64,3.25,1.9s2.5,1.91,3.25,1.91l2.46,3.35a15.21,15.21,0,0,1-2.69-.67,2.37,2.37,0,0,0-2.46.45c.45,2.09,1.12,3.14,2,3.14a8.5,8.5,0,0,0,2.36-.45,8.56,8.56,0,0,1,1.9-.45L505,21.22c0,1,.23,1.56.67,1.56a4.35,4.35,0,0,0,1.57-1.11,8.21,8.21,0,0,0-1.57,3.58,14.56,14.56,0,0,0-1.34-2.47Q486.15,41.16,474.5,54.13q0,4.26,2.46,4.26c1.35,0,2.17-.45,2.47-1.34l.44-1.12,2.92,2.46a11.49,11.49,0,0,1,5.37-1.57,8.3,8.3,0,0,1,4,1.12q3.13,0-20.15,2.46,2,1.58,6.49,5.83a17.69,17.69,0,0,0-4.48-2.92l-5.15-2.46a27.06,27.06,0,0,0-3.36,1.79c1.35.9,3.47,2.24,6.39,4s5,3.14,6.38,4q-4.71-2.46-13.21-6L453,76.75l3.59,4a8.91,8.91,0,0,0-6.27,1.12q1.79.67,7.61.67c0,1.05.9,2.46,2.69,4.26-1.05,3.88-2.09,5.82-3.14,5.82s-1.94-.3-2.24-.9c-.15-.15-.52-.07-1.12.23a43,43,0,0,0,4.48,8.28,29.38,29.38,0,0,1,2.47-7.61q5.15,1.78,11.41,11.64l9.86,15.45a7.82,7.82,0,0,0-.23,2.24c0,.9.08,2.17.23,3.81-.3.3-.45.52-.45.67,0,.3.67.45,2,.45s2.08-.15,2.23-.45l.45-.9,19.48,28.89q-3.36,0-5.37,4L498,156c-.45.44-1.72.67-3.8.67a4.22,4.22,0,0,0,3.13-1.12l-5.6-.9a6.65,6.65,0,0,0-1,1.57,6.47,6.47,0,0,1-1,1.57q1.56.9,4.48,5.82A18.92,18.92,0,0,0,504.28,156a82.1,82.1,0,0,1,6.94,6,17.79,17.79,0,0,1,4.93,7.84h-4a30.57,30.57,0,0,1-2,3.14,1.83,1.83,0,0,0,1.35.89c.59,0,1.12-.67,1.56-2q4.49-.45,8.74,4.92Q524.66,181.55,527.79,186ZM362.32,142.13a7.74,7.74,0,0,0-5.6-2.46,14.19,14.19,0,0,0,.67,3.69,14.13,14.13,0,0,1,.67,3.48,1.44,1.44,0,0,0,0-1.12c0-.45.64-.82,1.91-1.12a3.85,3.85,0,0,0,2.46-1.35,3,3,0,0,0,.56-1.34c0-.15-.08-.22-.23-.22Zm28.43,11a13.39,13.39,0,0,1-2-6.16,19.82,19.82,0,0,0-.9-4.82q-4.92,2.48-7.16,2.47c-1.35,0-3.51-.75-6.5-2.24q0-7.17-.44-7.84c-1.35,1-5.82,1.57-13.44,1.57a52.18,52.18,0,0,1,6.5,4c-.31.15-.45.3-.45.45l.89.89a4.7,4.7,0,0,1,.68,2.46c0,4,.29,6.35.89,7a3.91,3.91,0,0,0-.22-1.12q-.22-.67,0-.9a3,3,0,0,1,2-.45c1.2,0,1.79.68,1.79,2l-.44,4c.74-1.49,1.34-2.24,1.79-2.24,2.09,0,3.13-.82,3.13-2.46,0-.15-.15-.23-.45-.23a.62.62,0,0,0-.44.23,47.71,47.71,0,0,1-5.6-3.14l8.28-.67c1.35.75,2,1.49,2,2.24a2.37,2.37,0,0,1-.45,1.34,2.32,2.32,0,0,0-.45.9c0,.3.9.45,2.69.45L384,152C385.08,152.73,387.32,153.11,390.75,153.11ZM363.88,83V80.78h-3.35V83Zm.68,99.42h-2.24v-3.36h2.24Zm3.8-91.36L365,94.22l-1.12-1.35L367,89.74Zm2.69-2.46V81.45h-2.24v7.17Zm3.13-19.71v-2h-4.7v2Zm.45,91.36-3.13-3.36-1.35,1.35,3.14,3.13Zm-.45-83.74v-2H370.6v2ZM385.6,130c-1.34-2.09-3.13-5.29-5.37-9.63a15.18,15.18,0,0,0-5.6,9c1.49-2.83,3.14-4.18,4.93-4a10.46,10.46,0,0,1,.89,3.58,2.39,2.39,0,0,1-.67,1.79,5.11,5.11,0,0,1-3.8-1.34,6.39,6.39,0,0,1-1.57,4.7,5.75,5.75,0,0,1,4.25,1.57Q380.23,135,385.6,130Zm-2.68-53.51V74.29h-7.17v2.24Zm7.61-7.62V66.67h-7.16v2.24Zm2.69,103.45c-3.74,0-6.57.9-8.51,2.69v-4.93a5.12,5.12,0,0,1,1.9.56,6.18,6.18,0,0,0,1.46.56l3.58-2.46A7.06,7.06,0,0,1,393.22,172.36Zm-3.81-95.83v-2h-3.58v2Zm6.94,41.87L394.56,122l-1.79-.89,1.79-3.14Zm1.35,39.86h-2.24l-1.35-5.83h2ZM399.49,83V80.78h-4.7V83Zm-.67,39.18-1.8-.44-1.56,3.13,1.79.9Zm6.27-14.55-1.57-3.81-1.79.68,1.56,3.13Zm3.35-40.08a12.8,12.8,0,0,0-2.91.56,12.61,12.61,0,0,1-2.91.56v6.72Q403.07,73.18,408.44,67.57Zm-1.79,21.49h-2.24l-1.56,5.83h2.24Zm31.13-7.16a193.15,193.15,0,0,0-26.65-1.57,10.88,10.88,0,0,0,3.58-7.83c-2.39.89-4.25,2.91-5.59,6a3.34,3.34,0,0,0-2.92-.89q1.8,1.78,1.8,2.91a1.27,1.27,0,0,1-.23.89h-4.25q2.24-.67,6.94,4.7,1.79-3.8,7.61-3.8c3.88,0,6.2.3,6.94.89a9.75,9.75,0,0,1-1.79,2.91,3.94,3.94,0,0,0-3.13-.89,6,6,0,0,1,.89,2.91q0,2-2.91,4.7A24.9,24.9,0,0,0,414.94,96c1.94,1.94,3.5,2.91,4.7,2.91q2.46-3.81,8.73-12.77,5.38,2.7,7.84,2.47a4.2,4.2,0,0,0-1.12-2.69L434,84.59Q436.66,81.91,437.78,81.9ZM414.27,96.68H412l-1.57,5.82h2.24Zm1.79-27.77v-2h-4.7v2Zm13,59.56c-.3-1-1.42-1.56-3.35-1.56a3.83,3.83,0,0,0-3.14,1.9c-.89,1.27-1.57,1.9-2,1.9a12,12,0,0,1-9.18-3.8,71.75,71.75,0,0,0,2.68,8.73q1.56-.45,6-4t6.27-3.58C427.85,128,428.74,128.18,429,128.47ZM421,78.54v-6q-3.14,1.34-6,7.16a11.58,11.58,0,0,0,3-.56A11.51,11.51,0,0,1,421,78.54Zm6.94,30.23v-4.48h-2v4.48Zm2-32.24v-2h-3.36v2Zm1.79,24.18-1.79-.67-1.57,3.36,1.79.67Zm2.69-.23h-2.24l-1.34,5.83h2Zm2.46,4.48V99.14h-2.24V105Zm0,9h-2.24V108.1h2.24ZM449,83V80.78h-3.35V83Zm4,67.85-4.92-1.57v1.79l4.25,1.57Zm6.05,1.34v-4.7c-.6-.75-2-1.12-4.25-1.12a11.46,11.46,0,0,1,1.79,2.69C457.63,150.87,458.45,151.91,459.05,152.21Zm3.36-41.65h-2.24l-1.57,5.82h2.24ZM473.16,139a12.63,12.63,0,0,0-3.25.78,8.73,8.73,0,0,1-3.92.56c-1-.74-1.57-1.26-1.57-1.56s.37-.9,1.12-1.35q-.89-1.11-6.27-6.49a8.67,8.67,0,0,1,2.47.67,8.49,8.49,0,0,0,2.68.67q-5.15-5.15-5.15-10.52c0-.6.71-1.64,2.13-3.14s2.13-2.53,2.13-3.13l2.91,2.46a11.5,11.5,0,0,0,3.13-2.69c.15-.59.45-.89.9-.89v4.7c-.45,0-1.05.45-1.79,1.34a3.21,3.21,0,0,1-2.46,1.35,2.6,2.6,0,0,1-2.24-.9c-.15-.15-.45-.07-.9.23l3.36,3.35c1.94.16,3.36.23,4.25.23-1,.89-2.16,1.87-3.36,2.91a4.33,4.33,0,0,0-1.79,3.13Q465.54,134.07,473.16,139Zm-8.29-96.06-1.79-3.81-1.79.9,1.57,2.91Zm4.48-18.59a9.46,9.46,0,0,1-4.48,1.35,6.23,6.23,0,0,1-3.13-.9c.44,0,.85.9,1.23,2.69s.56,2.76.56,2.91Q465.77,27.94,469.35,24.35Zm1.34-3.13a63.4,63.4,0,0,1-7.16-4.7,11.25,11.25,0,0,1-.79,3.13,11.5,11.5,0,0,0-.78,3.13Zm-.22,90.24v-7.39q-5.6,2.46-7.39,5.82a4.36,4.36,0,0,1,1.57,2.91A5.4,5.4,0,0,0,467,112a5.4,5.4,0,0,1,2.13-.79A4.24,4.24,0,0,1,470.47,111.46Zm-3.14-69-1.79-.67L464,45l1.79.9Zm3.36-7.39a22.9,22.9,0,0,1-5.82-4v4ZM465.1,146.16c.74.15,1.12,2,1.12,5.38q0-1.35,3.13-5.38Zm5.59-2.91-4.92-1.56v1.79l4.25,1.57Zm4.93-13-2.69-3.36c-.89,0-2.09.67-3.58,2a12.12,12.12,0,0,1,3.25.67A11.72,11.72,0,0,0,475.62,130.27Zm2.46,41.42h-4.7v-2.24h4.7Zm4-30.23a31.24,31.24,0,0,1-4.7-3.13q1.13,6.49,1.12,7.39c.45,0,1.19-.75,2.24-2.24Zm7.62,17.47a37.75,37.75,0,0,1-9.86-4,74,74,0,0,0,2.69,8.73Q488.38,160.72,489.73,158.93Zm2-14.33q0-2-5.37-12.77l-1.57,8.51A44.31,44.31,0,0,1,491.74,144.6Zm-.45-118.23L490,21.44l-2,.67,1.56,4.26Zm4,75.68q0-1.78-2.46-4.48l-2.46,2.69a8.51,8.51,0,0,0-1.79-1.57l1.12,2.69a1.6,1.6,0,0,0,1.56-1.23,1.61,1.61,0,0,1,1.57-1.23C494.5,98.92,495.32,100,495.32,102.05Zm3.36,78.6c-1,1-3.43,2.54-7.16,4.48a24.1,24.1,0,0,1-1.46-4.37,24.78,24.78,0,0,0-1.45-4.37Q489.95,177.74,498.68,180.65Zm3.14-124.28L500,56.15c-2.24,0-3.36.6-3.36,1.79a3.61,3.61,0,0,0,.45,1.57,7.67,7.67,0,0,0-3.36-1.35c0-.44.48-1.15,1.45-2.12s1.46-1.68,1.46-2.13C496.67,55.55,498.38,56.37,501.82,56.37Zm-4-28.66V23h-2.24v4.7Zm5.6-11.87V13.6L497.56,12v2.24Zm6.71,158.54c-.3.89-.59,1.72-.89,2.46-.6,1.34-1.42,2-2.47,2a6.8,6.8,0,0,1-2.46-.68,7,7,0,0,0-2.46-.67c-1.34,0-1.94.15-1.79.45.29,1.5.45,2,.45,1.57a90.36,90.36,0,0,0-.23-9.41,12.27,12.27,0,0,0,4.7,2.47ZM506.74,52.57,505,55.93l-1.79-.68,1.57-3.36Zm1.8,114h-3.36v-2h3.36ZM517.72,8.23c0,.9-1.35,2.32-4,4.25-1.05,0-3.51-1.93-7.39-5.82q2.46,0,5.82-.22a16.72,16.72,0,0,1,4,0C517.19,6.74,517.72,7.33,517.72,8.23Zm-4.93,92.25L508.54,96l-1.35,1.34,4.26,4.48Zm.22,77.7-1.79,3.36-1.56-.89,1.56-3.14Z" transform="translate(0 -0.62)"/><path class="cls-1" d="M505.85,6.21h-3.36V4h3.36ZM520,93.77c-2.23,2.39-4.55,3.58-6.94,3.58a4.17,4.17,0,0,0-2.68,1.12,55.33,55.33,0,0,0-4.26-5.82c.6,0,1.2.45,1.79,1.34l1.35,2,3.36-3.36c-1.49-1.79-3.59-4.4-6.27-7.84q2.91,1.35,8.95,4.25C516.6,92.2,518.16,93.77,520,93.77Zm-3.58,39.86-9.85,4.92q0-1.34,4.7-3.81c-.45-.44-2.09-.67-4.92-.67v-8.73A119,119,0,0,0,516.37,133.63Zm-7.61,45.67a4.61,4.61,0,0,0-2.46-.89l.89-4a17.35,17.35,0,0,1,1.12-3.14,20.43,20.43,0,0,1,.67,4.93,11.94,11.94,0,0,1-2.46,7.61A6.49,6.49,0,0,1,508.76,179.3ZM621.84,69.36q-.9.45-9.63,4-7.62,3.14-9.4,5.6a.62.62,0,0,0-.23.45,1.82,1.82,0,0,0,.9,1.34q2.46-2.46,4-2.46a6,6,0,0,1,.67,2.68,11.52,11.52,0,0,1-1.57,5.38,30.08,30.08,0,0,1,6.94,5.82l4.71-6.27a142.09,142.09,0,0,1-7.84,17,21.43,21.43,0,0,1,6,3.13,1.3,1.3,0,0,0-.89-.44q-1.58,0-5.15,3.58l-.23.22c-.44.45.23.67,2,.67s2.69-.67,2.69-2a6.2,6.2,0,0,1-1.35,2.57,6.34,6.34,0,0,0-1.34,2.58c0-1.34-.75-2-2.24-2a7,7,0,0,0-2,4.7q0,2.47,2.69,4.48l-2.24-1.56a4.17,4.17,0,0,0-1.12,2.68q.68-4.47-1.34-5.15h-4.48c-1,0-1.57.3-1.57.9a5.42,5.42,0,0,0,.56,1.34,4.45,4.45,0,0,1,.56,1.57,44.17,44.17,0,0,1-4-2.46l-2,2v3.36c.89.75,3.06,1.12,6.49,1.12a2.41,2.41,0,0,0-.45,1.34,6,6,0,0,0,.9,2,5.74,5.74,0,0,1,.9,2.69c0,1.19-.72,3.43-2.13,6.71s-2.13,5.75-2.13,7.39a5.15,5.15,0,0,0,1.79-3.58c.45,0,1.49.75,3.14,2.24q1.78-3.59,4-3.58c0,.15.14,1.79.44,4.92q0,3.81,1.8,3.81c.59,0,1.56.08,2.91.22s2.31.23,2.91.23q-9.86,3.81-9.85,9a1.93,1.93,0,0,0,.89,1.57c-2.24,0-3.66-.3-4.25-.89v5.37a6,6,0,0,1-3.59,4.48q4,1.56,4,2.91a41.91,41.91,0,0,1-2.69,15.23q-1.57-2.46-4.26-7.62a3.14,3.14,0,0,0-.22,1.35q0,2,2,6h-8.73q-.9-6-3.36-6c-2.39,0-3.88.44-4.48,1.34a6.16,6.16,0,0,1,.68,1.79c0,.45.67.67,2,.67h2.46a7.22,7.22,0,0,1,1.12,2.24h-18.8q0-2.46-2.69-6.16t-5.15-3.69a4.58,4.58,0,0,0-2.13.67,4.9,4.9,0,0,1-2.35.67,2.87,2.87,0,0,1-2.46-.89l-1.35-1.79a11.06,11.06,0,0,0-1,2c-.53,1.2-1.09,1.79-1.68,1.79a4.42,4.42,0,0,0-2.91-1.57q1.11-2.46,8.5-9.85c0,1.94.3,3.22.9,3.81a21.39,21.39,0,0,1,4.93-4.7,59.85,59.85,0,0,0,5.37-4.26l2.46,2.69a28.15,28.15,0,0,0-.67-8.85A48.56,48.56,0,0,1,567.2,148a7.18,7.18,0,0,1,1.12-4.26,3.25,3.25,0,0,0-2.24-1.12A1.52,1.52,0,0,0,565,143a12.26,12.26,0,0,0-.78-2,7.82,7.82,0,0,1-.78-3.13,2.5,2.5,0,0,1,2-2.46l1.79-.68q-2-1.56-2-6.94a5.66,5.66,0,0,0,1.34,2.47q1.79-1.8,1.79-6.27,0-12.31-17.69-33.81,0-4.93,5.15-12.54a29.62,29.62,0,0,0-2.24-3.36q-5.37,1.33-4.7,11-7.4-12.54-13-21.05a10.94,10.94,0,0,0-1,2c-.53,1.19-1,1.79-1.46,1.79a22.63,22.63,0,0,1-3.13-2.24,7.63,7.63,0,0,0,5.15-2.24l-7.39-13-7.39-13L518.16,40q0-4-.67-11,11.19,16.8,20.83,32l.89.9q-9-16.33-18.58-34.71c.59.9,1.49,2.17,2.68,3.81a7.13,7.13,0,0,0,3.36-2.91c2.09-2.39,3.28-3.73,3.59-4q-1.8-1.78-8.29-1.79-4,0-13.21-4.71,3.81,0,8.73-4.25a5.08,5.08,0,0,0-3.36-1.12,7.93,7.93,0,0,0-3.8,1.12,16.69,16.69,0,0,0-1.79-2.91,5.63,5.63,0,0,1-1.12-3.36,6,6,0,0,1,1.12-3.58A28.25,28.25,0,0,0,510.77.62a16,16,0,0,0,1.12,6.49q1.8-2,6.27-6.49c.45.44-.15,1.49-1.79,3.13l2,2q24.63,0,36.94-1.12,2.91,8.5,12.77,25.3c.59,0,2.24-1.27,4.92-3.81,1.2.15,1.79,1.2,1.79,3.14q0,2.46-3.91,5.93c-2.62,2.32-4.74,3.47-6.39,3.47-2.23,0-3.35-.37-3.35-1.12l-1.57,1.79q2,2,10.07,2.69a7.28,7.28,0,0,0-5.15,2.47,2.75,2.75,0,0,0,2.47.22,15.21,15.21,0,0,1,2.68-.67q0,4.69-2.46,23.06,6,4.71,5.82,9a6.58,6.58,0,0,0,1.35,2.24q1.33-1.57,4.25-4.48-4.7-4-4.7-13.88-2.91-2-2.91-9.18c0,1,1-.82,2.91-5.6q1.11,1.78,3.36,4.7a4.36,4.36,0,0,0-3.81,1.57q1.78,1.78,7.61,1.79c-.44,2.09-2.09,5.15-4.92,9.18q3.14.67,9.4,5.6c.45-.45,1.91-1,4.37-1.57s4.07-1.34,4.81-2.24a10.34,10.34,0,0,0,.9,6.27q4.92-9.63,8.51-15.23a13.52,13.52,0,0,1,1.12,5.6q1.34,1.35,5.15,1.35a10,10,0,0,1-4.93,1.56,5.45,5.45,0,0,1-3.13-.89l-1.12,5.37a44.83,44.83,0,0,1,11-1.34Q618.7,66.9,621.84,69.36Zm-87.78,42.32q0,1.57-2,3.81c-1.35,1.49-2.54,2.24-3.59,2.24s-1.94-.23-2.24-.67-.52-.23-1.11.22c1.64,2.54,2.46,4.25,2.46,5.15q-4.94,2.91-6.27,2.91c-1.65,0-4.14-1.34-7.5-4s-5-4.78-5-6.27q0-2.91,5.6-11.42a56.86,56.86,0,0,0,4,5.15c1.19,0,1.79-.82,1.79-2.46q.68,0,5.37,2.46a9.25,9.25,0,0,0,.23-4.7c-.45-2.54-.45-4.4,0-5.6q1.56,4.69,8.28,11.2a3.31,3.31,0,0,1-2.91-.9A8.94,8.94,0,0,0,534.06,111.68Zm-18.81-30.9L514.13,79l-4.48,2.91,1.12,1.79Zm3.36-10.3-.89-2A2.89,2.89,0,0,0,515,66.67a7.35,7.35,0,0,0-2.24.45,9.42,9.42,0,0,1-1.57.45,5.88,5.88,0,0,0,1.79-4.7Q515,65.33,518.61,70.48Zm6-10.75q-5.16,0-6.27-.67c-1.79,1.79-2.69,3.29-2.69,4.48,0-1.49-1-2.24-3.13-2.24q3.34-3.36,6.27-3.36a9.47,9.47,0,0,1,3.47.9A16.56,16.56,0,0,0,524.66,59.73Zm8.06,34c-.9,0-2.69-1.35-5.38-4h-4.47a6.1,6.1,0,0,1-1.57,3.36q2.69,1.34,8.28,6.71Q532.71,96.68,532.72,93.77Zm-7.17-23.51h-1.79L522.19,66l1.8-.67Zm1.12,21.94-.89-1.79L522.87,92v2Zm2.69,62h-2v-3.36h2Zm11.42-12.54h-2V138.1h2Zm14.78,10.74q-1.8-1.56-11.2-4.7,2-3.36,9.41-7.16a5.51,5.51,0,0,1,2,4.25,7.61,7.61,0,0,1-.89,3.36,5.5,5.5,0,0,1,.67-2.46,1.28,1.28,0,0,0-.45-1.35,5.92,5.92,0,0,0-1.79,3.81C553.32,149.52,554.06,150.94,555.56,152.43Zm-5.82-50.15V97.57H547.5v4.71Zm12.54-73.67-3.81,1.79v-2l2.91-1.57ZM567,66V63.76l-6.05-1.34v2Zm-2-11-1.56-3.58-1.8.67L563.17,55Zm1.12,120.24-1.34,1.12-2.91-3.13,1.12-1.34Zm2.69-39.63H567l-1.57,4.25,1.79.68ZM585.12,77l-6-2.91-.67,1.79,5.82,2.91Zm3.58,75.69q0,4-4.7,10.3a100.24,100.24,0,0,1,1.12,14.33c-1-1.94-2-2.91-2.92-2.91a2.58,2.58,0,0,0-.67.45,109.16,109.16,0,0,1,1.57-15.9l2.46-15.9Q588.69,149.75,588.7,152.66Zm4.7-27.32v-7.16c-.15.59-1.57.89-4.25.89v6.05l2.91-2.47A5.78,5.78,0,0,1,593.4,125.34Zm-.45.22-1.56,4.93-1.8-.67,1.57-4.26Zm2.69,14.78H593.4V137h2.24Zm7.61-90.46-3.13,4.48-1.57-1.12,2.91-4.48Zm3.81,31.35-4.25,7.39-1.8-.9,4.26-7.16ZM604.37,90h-1.79L601,94.22l1.8.67Zm26.43-35.6A24.56,24.56,0,0,0,623.63,53a9.91,9.91,0,0,0-3.14.45l3.81,4.26c-.15-.75-1.2-1.12-3.13-1.12q-.45,0-5.6,3.36a12.88,12.88,0,0,0,2.24,1.11,1.92,1.92,0,0,1,1.34,2h3.14a2.45,2.45,0,0,0,.44-2c-.15-.74-.3-1.34-.44-1.79A4.32,4.32,0,0,1,623.85,62a2.14,2.14,0,0,1-.67,1.57q2.24,2.46,2.24,4.25Q617.8,66,603.92,52.34A6,6,0,0,0,605.49,49q7.6,5.16,7.39,5.15c1.64,0,3.81-.89,6.49-2.68q-.23-.68-5.26-3.25c-3.36-1.71-5.41-3.1-6.16-4.14h6.72a11.64,11.64,0,0,1,9.18,3.8Q628.56,53.25,630.8,54.36Zm-22.17,51.72a6.35,6.35,0,0,1-4.71-1.79,40.93,40.93,0,0,0,4.71-5.15Zm2-15.45-3.13,3.14-1.35-1.35,3.14-3.13Zm12.32-47q-7.62-2.91-11.87-2.91l1.12-1.12a4.14,4.14,0,0,1,2.69-.9Q618.26,38.68,623,43.61ZM680.28,6q-4,6.72-23.51,40.08-.45.68-5.49,1.91t-6.6,2.8c.3.44,2.16-.08,5.6-1.57h4.47q-2.68,4.24-6.94,12.54-1.34-5.39-13.21-11c.9,0,2.16-.82,3.81-2.47q-2.68-1.56-8.73-2.24-3.81-9.84-6-9.85a64.8,64.8,0,0,0-11.87,1.12L627.21,6ZM643.33,68q-6-2.91-8.73-2.91,4-3.81,4-7.17,3.36,0,4.7,1.57Zm14.11-27.77h-5.82c-.9,0-2.61.71-5.15,2.13s-4.41,2.13-5.6,2.13l7.39,1.79c.45-1.94,1.94-3.44,4.48-4.48A43.15,43.15,0,0,0,657.44,40.25ZM654.75,47V44.73h-3.58V47Z" transform="translate(0 -0.62)"/><path class="cls-1" d="M3.27,183.56c.82,0,2.2-.6,4.14-1.79-2.16.78-3.95,1.4-5.4,1.87A9.66,9.66,0,0,1,3.27,183.56Z" transform="translate(0 -0.62)"/><path class="cls-1" d="M10.32,155.12c-.6,0-.9.53-.9,1.57a3.07,3.07,0,0,1-.44,2H5.84q-1.56-1.33-1.56-4.47c0,2.38-1.43,3.58-4.26,3.58a5,5,0,0,1,1.79,3.36,7.67,7.67,0,0,1-.67,2.35,7.61,7.61,0,0,0-.67,2.57c.45-.89,2.38-2.53,5.82-4.92C9.12,159.23,10.47,157.21,10.32,155.12Z" transform="translate(0 -0.62)"/><path class="cls-1" d="M0,184.23c.56-.15,1.23-.35,2-.59a6.89,6.89,0,0,0-.87.14Z" transform="translate(0 -0.62)"/><path class="cls-1" d="M16.14,171.24a5.57,5.57,0,0,0-2,1.12A4.7,4.7,0,0,1,13,169.23c0,1.49-1,3.28-2.91,5.37a46.07,46.07,0,0,1,7.16-2.46C17.26,171.54,16.89,171.24,16.14,171.24Z" transform="translate(0 -0.62)"/><path class="cls-1" d="M11,170.57q-.45-.45-5.82-.45c0,2.54-.52,3.81-1.57,3.81l4.71,4.48a9.09,9.09,0,0,1-.68-3.14A4.77,4.77,0,0,1,11,170.57Z" transform="translate(0 -0.62)"/><rect class="cls-1" x="0.69" y="170.63" width="2.24" height="3.36"/><rect class="cls-1" x="137.28" y="25.3" width="2.24" height="15.9"/><polygon class="cls-1" points="134.82 41.87 136.39 46.13 138.18 46.13 136.61 41.2 134.82 41.87"/><polygon class="cls-1" points="145.57 27.99 143.78 27.99 141.09 41.2 142.88 41.2 145.57 27.99"/><path class="cls-1" d="M20.82,182.5l2-.51c1.34-.3,2.24-.22,2.69.23a9,9,0,0,0-1.35-3.59A8.49,8.49,0,0,1,20.82,182.5Z" transform="translate(0 -0.62)"/><path class="cls-1" d="M136.83,14.72Q135.27,17,133,19.65c1-1,3-1.57,5.82-1.57C138.85,15.84,138.18,14.72,136.83,14.72Z" transform="translate(0 -0.62)"/><polygon class="cls-1" points="153.18 13.88 151.61 10.08 149.82 10.97 151.17 13.88 153.18 13.88"/><path class="cls-1" d="M130.34,30.17c0,1.8,1.12,4.48,3.36,8.07a34,34,0,0,1-.9-7.84,37.94,37.94,0,0,1,.9-8.29A11,11,0,0,0,130.34,30.17Z" transform="translate(0 -0.62)"/><path class="cls-1" d="M20.82,182.5l-1.54.39A3.41,3.41,0,0,0,20.82,182.5Z" transform="translate(0 -0.62)"/><polygon class="cls-1" points="142.88 96.51 148.7 92.93 142.88 94.27 142.88 96.51"/><polygon class="cls-1" points="20.84 172.64 19.5 173.99 22.41 176.9 23.76 175.78 20.84 172.64"/><path class="cls-1" d="M147.13,76.75q10.08,9,15.23,13.44-.45-.68-3.36-4.26-2.69-2.69-2.68-4.25c0-1.05.14-1.65.44-1.8q.23,0,1.8,1.8a15.18,15.18,0,0,1-.45-3.81,59.43,59.43,0,0,1,1.79-12,60.17,60.17,0,0,0,1.79-12,12.44,12.44,0,0,0-1.12-5.6c-1.3-1.09-2.44-2.1-3.46-3l-.35.34a7.36,7.36,0,0,0-3.36-1.11q-1.11,0-6.6,6.82t-6.61,6.83a22.59,22.59,0,0,1-3.36-.44,2.21,2.21,0,0,0-2,.44q-.67-1.33,0-4.7c.45-2.09.52-3.43.22-4a21,21,0,0,0-2.68,2.46,8.37,8.37,0,0,1-.45-2.68A11.62,11.62,0,0,1,132.8,45,2.8,2.8,0,0,0,129.67,42q-4.26,0-4.26-6.94,0-2.68,2.92-11.42c1.93-5.82,3.43-9.55,4.47-11.2a7,7,0,0,1-3.35-1.56L98.77,125.12,68.13,8.6H0l0,112a70.4,70.4,0,0,0,.67,8.25v-2.21H2.93v4.48H1c.21,1.62.38,3.08.51,4.39a6.11,6.11,0,0,1,4.12-1.7c1.79,0,2.38.3,1.79.89v2.92a12.74,12.74,0,0,1-2.24-.34A12.87,12.87,0,0,0,2.93,137c.75,0,2,.83,3.81,2.47A13.23,13.23,0,0,1,9.87,143a2,2,0,0,1-.89.22q-1.58-2-2.91-2A8.56,8.56,0,0,0,0,144.15a12.65,12.65,0,0,0,2,7.61,4.29,4.29,0,0,1-.68-2.24,5.34,5.34,0,0,1,1.57-3.36q2.46,2.47,4.26,2.47c0-2.39.22-3.58.67-3.58,1.49,1.49,2.53,2.23,3.13,2.23a79.62,79.62,0,0,1,3.59-13.43q-3.83,3.81-4.93,3.81a4,4,0,0,1-.45-1.8,4.67,4.67,0,0,1,1.57-3.35h4.48a6.56,6.56,0,0,1,2,4.25c-1.64,2.24-2.84,4-3.58,5.15,6.12,3.14,9.48,5.52,10.08,7.17-2,0-2.91-.9-2.91-2.69L17,148.85c-.9,0-1.35-1.27-1.35-3.8-2.61,3.91-4.08,5.89-4.4,5.92q6.2,9.3,8.44,10.87a19.68,19.68,0,0,1-3.14,1.79c-1.64-1.64-2.46-2.69-2.46-3.13,0,.74-1,2.09-2.91,4a5.12,5.12,0,0,1,3.36-.23,20,20,0,0,0,3.35.67c.75,0,1.16-.41,1.24-1.23s.48-1.23,1.23-1.23c2.38,0,3.58,1.2,3.58,3.58L27.34,163a8.57,8.57,0,0,1-1.79-3.14l-1.35,1.79a2.89,2.89,0,0,1-2.46.9q-2.46,0-5.6-6.72a1,1,0,0,1,.67-.22c.15,0,.56.52,1.24,1.57a2.83,2.83,0,0,0,2.35,1.56q2.69,0,7.83-.22t7.84-.22a3.89,3.89,0,0,0-2.24,3.35,16.85,16.85,0,0,0,1.57,4.48c0-1.64,1-2.46,3.13-2.46q1.13,0,1.8-2.46L43,162.29V50.55L79.74,184.68h36.72q3.8-16.12,5.15-19.48h-15.9a3.21,3.21,0,0,1-1.12,2.24q-3.81-2-13.21-2-10.08,0-13.21-1.12a40.39,40.39,0,0,1,9.4-.89H92.5a24.37,24.37,0,0,1,2.91.22H97.2q12.31,0,15.23-6.27c.74.75.89,1.34.45,1.79l-3.59,4,10.3.9c3.44.3,5.6,1,6.5,2q1.56-2.68,6.71-6.27a73,73,0,0,1-8.73-5.15ZM7.19,132.28l-1.57-2.91,1.79-.67L9,132.28Zm96.28,21.5a7.84,7.84,0,0,1,2-5.82c0-1.35-1.65-2-4.93-2q6-6.49,9.85-5.6A64.38,64.38,0,0,1,103.47,153.78Z" transform="translate(0 -0.62)"/><polygon class="cls-1" points="138.85 153.16 145.79 157.19 146.69 155.62 138.85 153.16"/><path class="cls-1" d="M171.32,8.68l-9.63.22h-5.15l4.93,5.15a30.57,30.57,0,0,0-2,3.14q-3.36-3.59-4.25-3.59,3.12,5.83,5.15,9.18A49.94,49.94,0,0,1,155,19.87l-4.48-2.68q.67,2.68-4,5.37a3.68,3.68,0,0,0,2.69,1.57,2,2,0,0,0,1.57-.9c.45.45.67,1.5.67,3.14Q148,38.46,146.91,44.51q5.59-19.93,6.49-24.86l1.8,2V38l4-1.12a15.51,15.51,0,0,0,.67,3.81,15.4,15.4,0,0,1,.67,3.58c1.19-.59,2.31-1.12,3.36-1.57a20.48,20.48,0,0,0-2-2.46c-1.19-1.34-1.79-2.16-1.79-2.46l1.79-2a3.88,3.88,0,0,0,2.24,1.12A22.81,22.81,0,0,0,166.39,40a5.51,5.51,0,0,1,1.35,3.13c0,1.35-.9,2.91-2.69,4.7a8.15,8.15,0,0,0,2.13-.44,8.31,8.31,0,0,1,2.35-.45q2,0,3.8,2.46,3.58-6.49,4.71-7.61a11.17,11.17,0,0,1,.22,2c0,2.24-1.49,4.71-4.48,7.39a10.06,10.06,0,0,1,.67,4.26q0,4.7-5.37,29.78,12.09-11.87,22.84-24.63a1.8,1.8,0,0,1,.67,1.12,1,1,0,0,1-.22.67q-2.48,6.94-11.87,19L166.84,99.14a3.4,3.4,0,0,1-1.12-2.46,4,4,0,0,0-1.12,2.24,7.31,7.31,0,0,1,.9,1.12q.66,2.23-3.81,11.42a3.87,3.87,0,0,1,2.69-1.35,2.78,2.78,0,0,1,2,.9c0,1.49-.67,2.24-2,2.24,3,0,4.48.75,4.48,2.24l-2,2.24h-4.7a14,14,0,0,0-3.47.67,14.31,14.31,0,0,1-3.25.67v11h15.67a28,28,0,0,0-.67-3.8,4.86,4.86,0,0,1,.45-3.59c.75,1.5,1.34,2.24,1.79,2.24a37.11,37.11,0,0,0,.67,5.38c.3,1.79.23,3-.22,3.58-3.29-1.64-5.37-2.46-6.27-2.46H155.42v30.67a32.07,32.07,0,0,0,11,1.57q10.08,0,11.87-2.46a7.69,7.69,0,0,0,3.81,1.34h5.37c2.24,0,3.88.53,4.93,1.57h-37v20.6h41.87V8.68Zm-3.58,15.45,5.82,1.34v2.24l-5.82-1.57ZM165.27,17l1.57,3.59h-2l-1.34-2.92ZM161,35.55h-4.48A78.61,78.61,0,0,0,163,20.77q1.35,1.35,1.35,5.37a19.11,19.11,0,0,0,.34,4.24c-.43.13-.41.2.05.23a2.58,2.58,0,0,0,.28.68C165.05,31.74,163.7,33.16,161,35.55Zm4.7.89a3.7,3.7,0,0,0,2.91-1.79A5.66,5.66,0,0,0,170,31.29c0-1.19-.59-1.71-1.79-1.56s-2.06.34-2.69.47A8.05,8.05,0,0,0,166.62,27c1,.9,3,1.34,5.82,1.34a16.9,16.9,0,0,1-.56,3.47,16.38,16.38,0,0,0-.56,3.48Q170.2,36.44,165.72,36.44Zm12.54.45-1.34-8.28h2.24l1.34,8.28Zm6.05,3.36,3.13,1.57L187,43.61,183.63,42Zm3.58,9h-2.24V45.85h2.24ZM191,45h-3.36V42.71H191Zm-29.33,79.94h-2v-4.48h2Zm4.7-.89-1.79-.68,1.57-4.25H168Z" transform="translate(0 -0.62)"/><polygon class="cls-1" points="146.01 158.98 148.93 163.24 150.72 162.34 146.01 158.98"/><path class="cls-1" d="M.69,128.89v2.27H1c0-.19-.05-.37-.07-.56C.84,130,.76,129.44.69,128.89Z" transform="translate(0 -0.62)"/><polygon class="cls-1" points="158.78 115.09 155.42 112.86 155.42 115.09 158.78 115.09"/><path class="cls-1" d="M154.08,42.27c.8.89,1.83,1.9,3,3l.1-.1Z" transform="translate(0 -0.62)"/><path class="cls-1" d="M37.86,173c-1.34,0-2-.9-2-2.69H31.59c.75.15,1.05,1.19.9,3.13C35.32,173.19,37.11,173,37.86,173Z" transform="translate(0 -0.62)"/><path class="cls-1" d="M40.1,171.24a6.53,6.53,0,0,0,2,4.26,53.85,53.85,0,0,0-4.93,6.27c2.69,0,4.7.6,6.05,1.79v-8.29Q43.24,173,40.1,171.24Z" transform="translate(0 -0.62)"/><path class="cls-1" d="M31.15,163.41c0,1.64-.38,2.61-1.12,2.91A3.74,3.74,0,0,1,27.56,165v7.39c3.43-3.43,5.38-5.22,5.82-5.37A12.22,12.22,0,0,0,31.15,163.41Z" transform="translate(0 -0.62)"/><path class="cls-1" d="M11.29,151a.61.61,0,0,1-.07-.1C11.22,150.94,11.24,151,11.29,151Z" transform="translate(0 -0.62)"/><path class="cls-1" d="M1.48,138.33a12.47,12.47,0,0,1,.33,2.24c0-1.31-.1-3-.31-5l-.36.31A12.22,12.22,0,0,0,1.48,138.33Z" transform="translate(0 -0.62)"/></svg>